<mxfile host="Electron" modified="2024-04-25T05:41:27.268Z" agent="Mozilla/5.0 (Windows NT 10.0; Win64; x64) AppleWebKit/537.36 (KHTML, like Gecko) draw.io/24.2.5 Chrome/120.0.6099.109 Electron/28.1.0 Safari/537.36" etag="HFSgsSjyOMe7hcQC_l7m" version="24.2.5" type="device">
  <diagram name="第 1 页" id="DClQLnyXOXCI5cHzA_gx">
    <mxGraphModel dx="3143" dy="3377" grid="1" gridSize="10" guides="1" tooltips="1" connect="1" arrows="1" fold="1" page="1" pageScale="1" pageWidth="827" pageHeight="1169" math="0" shadow="0">
      <root>
        <mxCell id="0" />
        <mxCell id="1" parent="0" />
        <mxCell id="JiQiLtjtx4iJ_nlNVHGM-1" value="算法与数据结构&amp;nbsp; &amp;gt;&amp;gt;&amp;gt;&amp;gt;&amp;nbsp; 思维与逻辑结构" style="text;html=1;align=center;verticalAlign=middle;whiteSpace=wrap;rounded=0;fontStyle=1;fontSize=25;fillColor=#d80073;fontColor=#ffffff;strokeColor=#A50040;" vertex="1" parent="1">
          <mxGeometry x="173" y="10" width="470" height="50" as="geometry" />
        </mxCell>
        <mxCell id="JiQiLtjtx4iJ_nlNVHGM-2" value="1.链表" style="text;html=1;align=center;verticalAlign=middle;whiteSpace=wrap;rounded=0;fontStyle=1;fontSize=22;fillColor=#d80073;fontColor=#ffffff;strokeColor=#A50040;" vertex="1" parent="1">
          <mxGeometry x="354" y="80" width="120" height="40" as="geometry" />
        </mxCell>
        <mxCell id="JiQiLtjtx4iJ_nlNVHGM-15" value="" style="group" vertex="1" connectable="0" parent="1">
          <mxGeometry x="113" y="140" width="590" height="30" as="geometry" />
        </mxCell>
        <mxCell id="JiQiLtjtx4iJ_nlNVHGM-10" style="edgeStyle=orthogonalEdgeStyle;rounded=0;orthogonalLoop=1;jettySize=auto;html=1;exitX=1;exitY=0.5;exitDx=0;exitDy=0;entryX=0;entryY=0.5;entryDx=0;entryDy=0;" edge="1" parent="JiQiLtjtx4iJ_nlNVHGM-15" source="JiQiLtjtx4iJ_nlNVHGM-3" target="JiQiLtjtx4iJ_nlNVHGM-4">
          <mxGeometry relative="1" as="geometry" />
        </mxCell>
        <mxCell id="JiQiLtjtx4iJ_nlNVHGM-3" value="" style="ellipse;whiteSpace=wrap;html=1;aspect=fixed;fillColor=#0050ef;strokeColor=#001DBC;fontColor=#ffffff;" vertex="1" parent="JiQiLtjtx4iJ_nlNVHGM-15">
          <mxGeometry width="30" height="30" as="geometry" />
        </mxCell>
        <mxCell id="JiQiLtjtx4iJ_nlNVHGM-11" style="edgeStyle=orthogonalEdgeStyle;rounded=0;orthogonalLoop=1;jettySize=auto;html=1;exitX=1;exitY=0.5;exitDx=0;exitDy=0;entryX=0;entryY=0.5;entryDx=0;entryDy=0;" edge="1" parent="JiQiLtjtx4iJ_nlNVHGM-15" source="JiQiLtjtx4iJ_nlNVHGM-4" target="JiQiLtjtx4iJ_nlNVHGM-5">
          <mxGeometry relative="1" as="geometry" />
        </mxCell>
        <mxCell id="JiQiLtjtx4iJ_nlNVHGM-4" value="" style="ellipse;whiteSpace=wrap;html=1;aspect=fixed;fillColor=#6a00ff;strokeColor=#3700CC;fontColor=#ffffff;" vertex="1" parent="JiQiLtjtx4iJ_nlNVHGM-15">
          <mxGeometry x="112" width="30" height="30" as="geometry" />
        </mxCell>
        <mxCell id="JiQiLtjtx4iJ_nlNVHGM-12" style="edgeStyle=orthogonalEdgeStyle;rounded=0;orthogonalLoop=1;jettySize=auto;html=1;exitX=1;exitY=0.5;exitDx=0;exitDy=0;entryX=0;entryY=0.5;entryDx=0;entryDy=0;" edge="1" parent="JiQiLtjtx4iJ_nlNVHGM-15" source="JiQiLtjtx4iJ_nlNVHGM-5" target="JiQiLtjtx4iJ_nlNVHGM-6">
          <mxGeometry relative="1" as="geometry" />
        </mxCell>
        <mxCell id="JiQiLtjtx4iJ_nlNVHGM-5" value="" style="ellipse;whiteSpace=wrap;html=1;aspect=fixed;fillColor=#60a917;strokeColor=#2D7600;fontColor=#ffffff;" vertex="1" parent="JiQiLtjtx4iJ_nlNVHGM-15">
          <mxGeometry x="225" width="30" height="30" as="geometry" />
        </mxCell>
        <mxCell id="JiQiLtjtx4iJ_nlNVHGM-13" style="edgeStyle=orthogonalEdgeStyle;rounded=0;orthogonalLoop=1;jettySize=auto;html=1;exitX=1;exitY=0.5;exitDx=0;exitDy=0;entryX=0;entryY=0.5;entryDx=0;entryDy=0;" edge="1" parent="JiQiLtjtx4iJ_nlNVHGM-15" source="JiQiLtjtx4iJ_nlNVHGM-6" target="JiQiLtjtx4iJ_nlNVHGM-8">
          <mxGeometry relative="1" as="geometry" />
        </mxCell>
        <mxCell id="JiQiLtjtx4iJ_nlNVHGM-6" value="" style="ellipse;whiteSpace=wrap;html=1;aspect=fixed;fillColor=#d80073;strokeColor=#A50040;fontColor=#ffffff;" vertex="1" parent="JiQiLtjtx4iJ_nlNVHGM-15">
          <mxGeometry x="338" width="30" height="30" as="geometry" />
        </mxCell>
        <mxCell id="JiQiLtjtx4iJ_nlNVHGM-14" style="edgeStyle=orthogonalEdgeStyle;rounded=0;orthogonalLoop=1;jettySize=auto;html=1;exitX=1;exitY=0.5;exitDx=0;exitDy=0;entryX=0;entryY=0.5;entryDx=0;entryDy=0;" edge="1" parent="JiQiLtjtx4iJ_nlNVHGM-15" source="JiQiLtjtx4iJ_nlNVHGM-8" target="JiQiLtjtx4iJ_nlNVHGM-9">
          <mxGeometry relative="1" as="geometry" />
        </mxCell>
        <mxCell id="JiQiLtjtx4iJ_nlNVHGM-8" value="" style="ellipse;whiteSpace=wrap;html=1;aspect=fixed;fillColor=#a20025;strokeColor=#6F0000;fontColor=#ffffff;" vertex="1" parent="JiQiLtjtx4iJ_nlNVHGM-15">
          <mxGeometry x="450" width="30" height="30" as="geometry" />
        </mxCell>
        <mxCell id="JiQiLtjtx4iJ_nlNVHGM-9" value="" style="ellipse;whiteSpace=wrap;html=1;aspect=fixed;fillColor=#fa6800;strokeColor=#C73500;fontColor=#000000;" vertex="1" parent="JiQiLtjtx4iJ_nlNVHGM-15">
          <mxGeometry x="560" width="30" height="30" as="geometry" />
        </mxCell>
        <mxCell id="JiQiLtjtx4iJ_nlNVHGM-21" value="&lt;font color=&quot;#ffff33&quot;&gt;Node *getNewNode(int val) {&lt;/font&gt;&lt;div&gt;&lt;font color=&quot;#ffff33&quot;&gt;&lt;span style=&quot;white-space: pre;&quot;&gt;&#x9;&lt;/span&gt;Node *node = (Node *)malloc(sizeof(Node));&lt;br&gt;&lt;/font&gt;&lt;/div&gt;&lt;div&gt;&lt;font color=&quot;#ffff33&quot;&gt;&lt;span style=&quot;white-space: pre;&quot;&gt;&#x9;&lt;/span&gt;node-&amp;gt;data = val;&lt;br&gt;&lt;/font&gt;&lt;/div&gt;&lt;div&gt;&lt;font color=&quot;#ffff33&quot;&gt;&lt;span style=&quot;white-space: pre;&quot;&gt;&#x9;&lt;/span&gt;node-&amp;gt;next = NULL;&lt;br&gt;&lt;/font&gt;&lt;/div&gt;&lt;div&gt;&lt;font color=&quot;#ffff33&quot;&gt;&lt;span style=&quot;white-space: pre;&quot;&gt;&#x9;&lt;/span&gt;return node;&lt;br&gt;&lt;/font&gt;&lt;/div&gt;&lt;div&gt;&lt;font color=&quot;#ffff33&quot;&gt;}&lt;/font&gt;&lt;/div&gt;" style="rounded=1;whiteSpace=wrap;html=1;align=left;fillColor=#0050ef;strokeColor=#001DBC;fontColor=#ffffff;spacingLeft=17;fontSize=16;spacingBottom=-41;container=0;" vertex="1" parent="1">
          <mxGeometry x="13" y="500" width="380" height="280" as="geometry" />
        </mxCell>
        <mxCell id="JiQiLtjtx4iJ_nlNVHGM-22" value="结构操作&lt;div&gt;（节点创建）&lt;/div&gt;" style="text;html=1;align=center;verticalAlign=middle;whiteSpace=wrap;rounded=0;fontColor=#FFFFFF;fontStyle=1;fontSize=15;container=0;" vertex="1" parent="1">
          <mxGeometry x="133" y="530" width="140" height="30" as="geometry" />
        </mxCell>
        <mxCell id="JiQiLtjtx4iJ_nlNVHGM-38" value="&lt;font color=&quot;#ffff33&quot;&gt;Node *insert(Node *head, int pos, int val) {&lt;/font&gt;&lt;div&gt;&lt;font color=&quot;#b9e0a5&quot;&gt;&lt;span style=&quot;white-space: pre;&quot;&gt;&#x9;&lt;/span&gt;// 创建虚拟头节点&lt;br&gt;&lt;/font&gt;&lt;div&gt;&lt;font color=&quot;#ffff33&quot;&gt;&lt;span style=&quot;white-space: pre;&quot;&gt;&#x9;&lt;/span&gt;Node new_head, *p = &amp;amp;new_head;&lt;/font&gt;&lt;/div&gt;&lt;div&gt;&lt;font color=&quot;#ffff33&quot;&gt;&lt;span style=&quot;white-space: pre;&quot;&gt;&#x9;&lt;/span&gt;Node *node = getNewNode(val);&lt;/font&gt;&lt;/div&gt;&lt;div&gt;&lt;font color=&quot;#ffff33&quot;&gt;&lt;span style=&quot;white-space: pre;&quot;&gt;&#x9;&lt;/span&gt;new_head.next = head;&lt;/font&gt;&lt;/div&gt;&lt;div&gt;&lt;font color=&quot;#ffff33&quot;&gt;&lt;span style=&quot;white-space: pre;&quot;&gt;&#x9;&lt;/span&gt;for (int i = 0; i &amp;lt; pos; i++) p = p-&amp;gt;next;&lt;/font&gt;&lt;/div&gt;&lt;div&gt;&lt;font color=&quot;#ffff33&quot;&gt;&lt;span style=&quot;white-space: pre;&quot;&gt;&#x9;&lt;/span&gt;node-&amp;gt;next = p-&amp;gt;next;&lt;/font&gt;&lt;/div&gt;&lt;div&gt;&lt;font color=&quot;#ffff33&quot;&gt;&lt;span style=&quot;white-space: pre;&quot;&gt;&#x9;&lt;/span&gt;p-&amp;gt;next = node;&lt;/font&gt;&lt;/div&gt;&lt;div&gt;&lt;font color=&quot;#ffff33&quot;&gt;&lt;span style=&quot;white-space: pre;&quot;&gt;&#x9;&lt;/span&gt;return new_head.next;&amp;nbsp;&lt;br&gt;&lt;/font&gt;&lt;/div&gt;&lt;div&gt;&lt;font color=&quot;#ffff33&quot;&gt;}&lt;/font&gt;&lt;/div&gt;&lt;/div&gt;" style="rounded=1;whiteSpace=wrap;html=1;align=left;fillColor=#0050ef;strokeColor=#001DBC;fontColor=#ffffff;spacingLeft=17;fontSize=16;spacingBottom=-41;container=0;" vertex="1" parent="1">
          <mxGeometry x="463" y="499" width="340" height="281" as="geometry" />
        </mxCell>
        <mxCell id="JiQiLtjtx4iJ_nlNVHGM-39" value="结构操作&lt;div&gt;（节点插入）&lt;/div&gt;" style="text;html=1;align=center;verticalAlign=middle;whiteSpace=wrap;rounded=0;fontColor=#FFFFFF;fontStyle=1;fontSize=15;container=0;" vertex="1" parent="1">
          <mxGeometry x="563" y="520" width="140" height="30" as="geometry" />
        </mxCell>
        <mxCell id="JiQiLtjtx4iJ_nlNVHGM-40" value="&lt;font color=&quot;#ffff33&quot;&gt;Node *delete(Node *head, int pos) {&lt;/font&gt;&lt;div&gt;&lt;span style=&quot;color: rgb(255, 255, 51); white-space: pre;&quot;&gt;&#x9;&lt;/span&gt;&lt;font color=&quot;#b9e0a5&quot;&gt;// 空链表直接返回&lt;/font&gt;&lt;br&gt;&lt;div&gt;&lt;font color=&quot;#ffff33&quot;&gt;&lt;span style=&quot;white-space: pre;&quot;&gt;&#x9;&lt;/span&gt;if ( head == NULL ) return NULL;&lt;/font&gt;&lt;div&gt;&lt;div&gt;&lt;font color=&quot;#ffff33&quot;&gt;&lt;span style=&quot;white-space: pre;&quot;&gt;&#x9;&lt;/span&gt;Node new_head, *p = &amp;amp;new_head;&lt;/font&gt;&lt;/div&gt;&lt;div&gt;&lt;span style=&quot;color: rgb(255, 255, 51); white-space: pre;&quot;&gt;&#x9;&lt;/span&gt;&lt;font color=&quot;#b9e0a5&quot;&gt;// 判断pos的合法性&lt;/font&gt;&lt;br&gt;&lt;/div&gt;&lt;div&gt;&lt;font color=&quot;#ffff33&quot;&gt;&lt;span style=&quot;white-space: pre;&quot;&gt;&#x9;&lt;/span&gt;int n = 0;&lt;br&gt;&lt;/font&gt;&lt;/div&gt;&lt;div&gt;&lt;font color=&quot;#ffff33&quot;&gt;&lt;span style=&quot;white-space: pre;&quot;&gt;&#x9;&lt;/span&gt;for ( Node *q = head; q; q = q-&amp;gt;next ) n += 1;&lt;br&gt;&lt;/font&gt;&lt;/div&gt;&lt;div&gt;&lt;font color=&quot;#ffff33&quot;&gt;&lt;span style=&quot;white-space: pre;&quot;&gt;&#x9;&lt;/span&gt;if ( pos &amp;gt;= n || pos &amp;lt; 0) return head;&lt;br&gt;&lt;/font&gt;&lt;/div&gt;&lt;div&gt;&lt;span style=&quot;color: rgb(185, 224, 165);&quot;&gt;&lt;span style=&quot;white-space: pre;&quot;&gt;&#x9;&lt;/span&gt;// 定位待删除元素的前一个节点&lt;/span&gt;&lt;font color=&quot;#ffff33&quot;&gt;&lt;br&gt;&lt;/font&gt;&lt;/div&gt;&lt;div&gt;&lt;font color=&quot;#ffff33&quot;&gt;&lt;span style=&quot;white-space: pre;&quot;&gt;&#x9;&lt;/span&gt;for ( int i = 0; i &amp;lt; pos; i++ ) {&lt;/font&gt;&lt;/div&gt;&lt;div&gt;&lt;span style=&quot;background-color: initial; white-space: pre;&quot;&gt;&lt;font color=&quot;#ffff33&quot;&gt;&#x9;&lt;span style=&quot;white-space: pre;&quot;&gt;&#x9;&lt;/span&gt;p = p-&amp;gt;next;&lt;/font&gt;&lt;/span&gt;&lt;/div&gt;&lt;div&gt;&lt;span style=&quot;background-color: initial;&quot;&gt;&lt;font color=&quot;#ffff33&quot;&gt;&lt;span style=&quot;white-space: pre;&quot;&gt;&#x9;&lt;/span&gt;}&lt;/font&gt;&lt;/span&gt;&lt;/div&gt;&lt;div&gt;&lt;span style=&quot;background-color: initial;&quot;&gt;&lt;font color=&quot;#ffff33&quot;&gt;&lt;span style=&quot;white-space: pre;&quot;&gt;&#x9;&lt;/span&gt;Node *q = p-&amp;gt;next;&lt;br&gt;&lt;/font&gt;&lt;/span&gt;&lt;/div&gt;&lt;div&gt;&lt;span style=&quot;background-color: initial;&quot;&gt;&lt;font color=&quot;#ffff33&quot;&gt;&lt;span style=&quot;white-space: pre;&quot;&gt;&#x9;&lt;/span&gt;p-&amp;gt;next = q-&amp;gt;next;&lt;br&gt;&lt;/font&gt;&lt;/span&gt;&lt;/div&gt;&lt;div&gt;&lt;span style=&quot;background-color: initial;&quot;&gt;&lt;font color=&quot;#ffff33&quot;&gt;&lt;span style=&quot;white-space: pre;&quot;&gt;&#x9;&lt;/span&gt;free(q);&lt;br&gt;&lt;/font&gt;&lt;/span&gt;&lt;/div&gt;&lt;div&gt;&lt;span style=&quot;background-color: initial;&quot;&gt;&lt;font color=&quot;#ffff33&quot;&gt;&lt;span style=&quot;white-space: pre;&quot;&gt;&#x9;&lt;/span&gt;return new_head.next;&lt;br&gt;&lt;/font&gt;&lt;/span&gt;&lt;/div&gt;&lt;div&gt;&lt;div&gt;&lt;font color=&quot;#ffff33&quot;&gt;}&lt;/font&gt;&lt;/div&gt;&lt;/div&gt;&lt;/div&gt;&lt;/div&gt;&lt;/div&gt;" style="rounded=1;whiteSpace=wrap;html=1;align=left;fillColor=#0050ef;strokeColor=#001DBC;fontColor=#ffffff;spacingLeft=17;fontSize=16;spacingBottom=-41;container=0;" vertex="1" parent="1">
          <mxGeometry x="13" y="870" width="380" height="430" as="geometry" />
        </mxCell>
        <mxCell id="JiQiLtjtx4iJ_nlNVHGM-41" value="结构操作&lt;div&gt;（节点删除）&lt;/div&gt;" style="text;html=1;align=center;verticalAlign=middle;whiteSpace=wrap;rounded=0;fontColor=#FFFFFF;fontStyle=1;fontSize=15;container=0;" vertex="1" parent="1">
          <mxGeometry x="133" y="890" width="140" height="30" as="geometry" />
        </mxCell>
        <mxCell id="JiQiLtjtx4iJ_nlNVHGM-43" value="&lt;font color=&quot;#ffff33&quot;&gt;void clear(Node *head) {&lt;/font&gt;&lt;div&gt;&lt;font color=&quot;#ffff33&quot;&gt;&lt;span style=&quot;white-space: pre;&quot;&gt;&#x9;&lt;/span&gt;if ( head == NULL ) return ;&lt;br&gt;&lt;/font&gt;&lt;/div&gt;&lt;div&gt;&lt;span style=&quot;color: rgb(255, 255, 51); white-space: pre;&quot;&gt;&#x9;&lt;/span&gt;&lt;font color=&quot;#b9e0a5&quot;&gt;// 删除当前节点前，记录下一节点&lt;br&gt;&lt;/font&gt;&lt;/div&gt;&lt;div&gt;&lt;font color=&quot;#b9e0a5&quot;&gt;&lt;span style=&quot;white-space: pre;&quot;&gt;&#x9;&lt;/span&gt;// 防止内存泄漏&lt;/font&gt;&lt;br&gt;&lt;/div&gt;&lt;div&gt;&lt;font color=&quot;#ffff33&quot;&gt;&lt;span style=&quot;white-space: pre;&quot;&gt;&#x9;&lt;/span&gt;for ( Node *p = head, *q; p; p = q) {&lt;/font&gt;&lt;/div&gt;&lt;div&gt;&lt;font color=&quot;#ffff33&quot;&gt;&lt;span style=&quot;white-space: pre;&quot;&gt;&#x9;&lt;/span&gt;&lt;span style=&quot;white-space: pre;&quot;&gt;&#x9;&lt;/span&gt;q = p-&amp;gt;next;&lt;br&gt;&lt;/font&gt;&lt;/div&gt;&lt;div&gt;&lt;font color=&quot;#ffff33&quot;&gt;&lt;span style=&quot;white-space: pre;&quot;&gt;&#x9;&lt;/span&gt;&lt;span style=&quot;white-space: pre;&quot;&gt;&#x9;&lt;/span&gt;free(p);&lt;br&gt;&lt;/font&gt;&lt;/div&gt;&lt;div&gt;&lt;font color=&quot;#ffff33&quot;&gt;&lt;span style=&quot;white-space: pre;&quot;&gt;&#x9;&lt;/span&gt;}&lt;br&gt;&lt;/font&gt;&lt;/div&gt;&lt;div&gt;&lt;font color=&quot;#ffff33&quot;&gt;&lt;span style=&quot;white-space: pre;&quot;&gt;&#x9;&lt;/span&gt;return ;&lt;/font&gt;&lt;/div&gt;&lt;div&gt;&lt;font color=&quot;#ffff33&quot;&gt;}&lt;/font&gt;&lt;/div&gt;" style="rounded=1;whiteSpace=wrap;html=1;align=left;fillColor=#0050ef;strokeColor=#001DBC;fontColor=#ffffff;spacingLeft=17;fontSize=16;spacingBottom=-41;container=0;" vertex="1" parent="1">
          <mxGeometry x="463" y="870" width="340" height="430" as="geometry" />
        </mxCell>
        <mxCell id="JiQiLtjtx4iJ_nlNVHGM-44" value="结构操作&lt;div&gt;（链表销毁）&lt;/div&gt;" style="text;html=1;align=center;verticalAlign=middle;whiteSpace=wrap;rounded=0;fontColor=#FFFFFF;fontStyle=1;fontSize=15;container=0;" vertex="1" parent="1">
          <mxGeometry x="563" y="910" width="140" height="30" as="geometry" />
        </mxCell>
        <mxCell id="JiQiLtjtx4iJ_nlNVHGM-45" value="数据结构层面&lt;div&gt;&lt;span style=&quot;font-size: 16px;&quot;&gt;具有在表示和操作具有动态和非线性关系的数据集时的灵活性和效率&lt;/span&gt;&lt;br&gt;&lt;/div&gt;" style="text;html=1;align=center;verticalAlign=middle;whiteSpace=wrap;rounded=0;fontStyle=1;fontSize=22;fillColor=#a20025;fontColor=#ffffff;strokeColor=#6F0000;" vertex="1" parent="1">
          <mxGeometry x="152" y="190" width="510" height="73" as="geometry" />
        </mxCell>
        <mxCell id="JiQiLtjtx4iJ_nlNVHGM-47" value="逻辑结构层面&lt;div&gt;&lt;span style=&quot;font-size: 16px;&quot;&gt;链表结构代表着多个具有确定性关系的逻辑结构&lt;/span&gt;&lt;div style=&quot;font-size: 16px;&quot;&gt;将指针的指向，抽象为规则的实现&lt;/div&gt;&lt;/div&gt;" style="text;html=1;align=center;verticalAlign=middle;whiteSpace=wrap;rounded=0;fontStyle=1;fontSize=22;fillColor=#a20025;fontColor=#ffffff;strokeColor=#6F0000;" vertex="1" parent="1">
          <mxGeometry x="193" y="1380" width="430" height="90" as="geometry" />
        </mxCell>
        <mxCell id="JiQiLtjtx4iJ_nlNVHGM-52" style="edgeStyle=orthogonalEdgeStyle;rounded=0;orthogonalLoop=1;jettySize=auto;html=1;exitX=1;exitY=0.5;exitDx=0;exitDy=0;entryX=0;entryY=0.5;entryDx=0;entryDy=0;fillColor=#d80073;strokeColor=#A50040;" edge="1" parent="1" source="JiQiLtjtx4iJ_nlNVHGM-50" target="JiQiLtjtx4iJ_nlNVHGM-51">
          <mxGeometry relative="1" as="geometry" />
        </mxCell>
        <mxCell id="JiQiLtjtx4iJ_nlNVHGM-50" value="指针" style="rounded=1;whiteSpace=wrap;html=1;fillColor=#6a00ff;fontColor=#ffffff;strokeColor=#3700CC;fontStyle=1;fontSize=14;" vertex="1" parent="1">
          <mxGeometry x="133" y="1510" width="100" height="50" as="geometry" />
        </mxCell>
        <mxCell id="JiQiLtjtx4iJ_nlNVHGM-51" value="规则" style="rounded=1;whiteSpace=wrap;html=1;fillColor=#e51400;fontColor=#ffffff;strokeColor=#B20000;fontStyle=1;fontSize=14;" vertex="1" parent="1">
          <mxGeometry x="563" y="1510" width="100" height="50" as="geometry" />
        </mxCell>
        <mxCell id="JiQiLtjtx4iJ_nlNVHGM-53" value="&lt;font style=&quot;font-size: 16px;&quot; color=&quot;#ffffff&quot;&gt;&lt;b&gt;以快乐数为例&lt;br&gt;（指针到具体规则的映射）&lt;/b&gt;&lt;/font&gt;&lt;div&gt;&lt;font style=&quot;font-size: 16px;&quot;&gt;&lt;b style=&quot;color: rgb(255, 255, 255);&quot;&gt;快乐数的规则如下&lt;br&gt;&lt;/b&gt;&lt;font color=&quot;#ffff66&quot;&gt;对于一个正整数，每一次将该数替换为它每个位置上的数字的平方和。&lt;/font&gt;&lt;/font&gt;&lt;div&gt;&lt;font color=&quot;#ffff66&quot; style=&quot;font-size: 16px;&quot;&gt;然后重复这个过程直到这个数变为 1，也可能是&amp;nbsp;无限循环&amp;nbsp;但始终变不到 1。&lt;/font&gt;&lt;/div&gt;&lt;div&gt;&lt;font color=&quot;#ffff66&quot; style=&quot;font-size: 16px;&quot;&gt;如果这个过程&amp;nbsp;结果为&amp;nbsp;1，那么这个数就是快乐数。&lt;/font&gt;&lt;/div&gt;&lt;/div&gt;" style="text;html=1;align=center;verticalAlign=middle;whiteSpace=wrap;rounded=0;fillColor=#d80073;strokeColor=#A50040;" vertex="1" parent="1">
          <mxGeometry x="113" y="1590" width="573" height="130" as="geometry" />
        </mxCell>
        <mxCell id="JiQiLtjtx4iJ_nlNVHGM-17" value="typedef struct Node {&lt;div style=&quot;font-size: 16px;&quot;&gt;&lt;span style=&quot;white-space: pre; font-size: 16px;&quot;&gt;&#x9;&lt;/span&gt;int data;&lt;br style=&quot;font-size: 16px;&quot;&gt;&lt;/div&gt;&lt;div style=&quot;font-size: 16px;&quot;&gt;&lt;span style=&quot;white-space: pre; font-size: 16px;&quot;&gt;&#x9;&lt;/span&gt;struct Node* next;&lt;br style=&quot;font-size: 16px;&quot;&gt;&lt;/div&gt;&lt;div style=&quot;font-size: 16px;&quot;&gt;} Node;&lt;/div&gt;" style="rounded=1;whiteSpace=wrap;html=1;align=left;fillColor=#008a00;strokeColor=#005700;fontColor=#ffffff;spacingLeft=17;fontSize=16;spacingBottom=-27;movable=1;resizable=1;rotatable=1;deletable=1;editable=1;locked=0;connectable=1;" vertex="1" parent="1">
          <mxGeometry x="302" y="280" width="210.00000000000003" height="180" as="geometry" />
        </mxCell>
        <mxCell id="JiQiLtjtx4iJ_nlNVHGM-18" value="结构定义" style="text;html=1;align=center;verticalAlign=middle;whiteSpace=wrap;rounded=0;fontColor=#FFFFFF;fontStyle=1;fontSize=15;" vertex="1" parent="1">
          <mxGeometry x="362" y="300" width="90.00000000000001" height="30" as="geometry" />
        </mxCell>
        <mxCell id="JiQiLtjtx4iJ_nlNVHGM-61" style="edgeStyle=orthogonalEdgeStyle;rounded=0;orthogonalLoop=1;jettySize=auto;html=1;exitX=1;exitY=0.5;exitDx=0;exitDy=0;entryX=0;entryY=0.5;entryDx=0;entryDy=0;fillColor=#d80073;strokeColor=#A50040;" edge="1" parent="1" source="JiQiLtjtx4iJ_nlNVHGM-57" target="JiQiLtjtx4iJ_nlNVHGM-59">
          <mxGeometry relative="1" as="geometry" />
        </mxCell>
        <mxCell id="JiQiLtjtx4iJ_nlNVHGM-57" value="&lt;div&gt;&lt;font color=&quot;#ffff66&quot;&gt;&lt;span style=&quot;font-weight: 400;&quot;&gt;#include&amp;lt;stdio.h&amp;gt;&lt;/span&gt;&lt;/font&gt;&lt;/div&gt;&lt;div&gt;&lt;font color=&quot;#ffff66&quot;&gt;&lt;span style=&quot;font-weight: 400;&quot;&gt;&lt;br&gt;&lt;/span&gt;&lt;/font&gt;&lt;/div&gt;&lt;div&gt;&lt;font color=&quot;#ffff66&quot;&gt;&lt;span style=&quot;font-weight: 400;&quot;&gt;int circleList(Node *head) {&lt;/span&gt;&lt;/font&gt;&lt;/div&gt;&lt;div&gt;&lt;font color=&quot;#ffff66&quot;&gt;&lt;span style=&quot;font-weight: 400;&quot;&gt;&amp;nbsp; &amp;nbsp; // 设p是快指针，q是慢指针&lt;/span&gt;&lt;/font&gt;&lt;/div&gt;&lt;div&gt;&lt;font color=&quot;#ffff66&quot;&gt;&lt;span style=&quot;font-weight: 400;&quot;&gt;&amp;nbsp; &amp;nbsp; Node *p = head, *q = head;&lt;/span&gt;&lt;/font&gt;&lt;/div&gt;&lt;div&gt;&lt;font color=&quot;#ffff66&quot;&gt;&lt;span style=&quot;font-weight: 400;&quot;&gt;&amp;nbsp; &amp;nbsp; while (p) {&lt;/span&gt;&lt;/font&gt;&lt;/div&gt;&lt;div&gt;&lt;font color=&quot;#ffff66&quot;&gt;&lt;span style=&quot;font-weight: 400;&quot;&gt;&amp;nbsp; &amp;nbsp; &amp;nbsp; &amp;nbsp; p = p-&amp;gt;next-next;&lt;/span&gt;&lt;/font&gt;&lt;/div&gt;&lt;div&gt;&lt;font color=&quot;#ffff66&quot;&gt;&lt;span style=&quot;font-weight: 400;&quot;&gt;&amp;nbsp; &amp;nbsp; &amp;nbsp; &amp;nbsp; q = q-&amp;gt;next;&lt;/span&gt;&lt;/font&gt;&lt;/div&gt;&lt;div&gt;&lt;font color=&quot;#ffff66&quot;&gt;&lt;span style=&quot;font-weight: 400;&quot;&gt;&amp;nbsp; &amp;nbsp; &amp;nbsp; &amp;nbsp; if (p == q) {&lt;/span&gt;&lt;/font&gt;&lt;/div&gt;&lt;div&gt;&lt;font color=&quot;#ffff66&quot;&gt;&lt;span style=&quot;font-weight: 400;&quot;&gt;&amp;nbsp; &amp;nbsp; &amp;nbsp; &amp;nbsp; &amp;nbsp; &amp;nbsp; return 1;&lt;/span&gt;&lt;/font&gt;&lt;/div&gt;&lt;div&gt;&lt;font color=&quot;#ffff66&quot;&gt;&lt;span style=&quot;font-weight: 400;&quot;&gt;&amp;nbsp; &amp;nbsp; &amp;nbsp; &amp;nbsp; }&lt;/span&gt;&lt;/font&gt;&lt;/div&gt;&lt;div&gt;&lt;font color=&quot;#ffff66&quot;&gt;&lt;span style=&quot;font-weight: 400;&quot;&gt;&amp;nbsp; &amp;nbsp; }&lt;/span&gt;&lt;/font&gt;&lt;/div&gt;&lt;div&gt;&lt;font color=&quot;#ffff66&quot;&gt;&lt;span style=&quot;font-weight: 400;&quot;&gt;&amp;nbsp; &amp;nbsp; return 0;&lt;/span&gt;&lt;/font&gt;&lt;/div&gt;&lt;div&gt;&lt;font color=&quot;#ffff66&quot;&gt;&lt;span style=&quot;font-weight: 400;&quot;&gt;}&lt;/span&gt;&lt;/font&gt;&lt;/div&gt;&lt;div&gt;&lt;br&gt;&lt;/div&gt;" style="rounded=1;whiteSpace=wrap;html=1;align=left;fillColor=#6a00ff;strokeColor=#3700CC;spacingLeft=17;spacingBottom=-41;container=0;fontStyle=1;fontColor=#ffffff;" vertex="1" parent="1">
          <mxGeometry x="34" y="1786.25" width="300" height="327.5" as="geometry" />
        </mxCell>
        <mxCell id="JiQiLtjtx4iJ_nlNVHGM-58" value="数据结构层面对循环链表的判断&lt;div&gt;（通过快慢指针判断循环链）&lt;/div&gt;" style="text;html=1;align=center;verticalAlign=middle;whiteSpace=wrap;rounded=0;fontColor=#FFFFFF;fontStyle=1;fontSize=15;container=0;" vertex="1" parent="1">
          <mxGeometry x="64" y="1805" width="220" height="30" as="geometry" />
        </mxCell>
        <mxCell id="JiQiLtjtx4iJ_nlNVHGM-59" value="&lt;div&gt;&lt;font color=&quot;#ffff66&quot;&gt;&lt;span style=&quot;font-weight: 400;&quot;&gt;int getNext(int n) {&lt;/span&gt;&lt;/font&gt;&lt;/div&gt;&lt;div&gt;&lt;font color=&quot;#ffff66&quot;&gt;&lt;span style=&quot;font-weight: 400;&quot;&gt;&amp;nbsp; &amp;nbsp; int k = 0;&lt;/span&gt;&lt;/font&gt;&lt;/div&gt;&lt;div&gt;&lt;font color=&quot;#ffff66&quot;&gt;&lt;span style=&quot;font-weight: 400;&quot;&gt;&amp;nbsp; &amp;nbsp; while (n) {&lt;/span&gt;&lt;/font&gt;&lt;/div&gt;&lt;div&gt;&lt;font color=&quot;#ffff66&quot;&gt;&lt;span style=&quot;font-weight: 400;&quot;&gt;&amp;nbsp; &amp;nbsp; &amp;nbsp; &amp;nbsp; k = k + (n % 10) * (n % 10);&lt;/span&gt;&lt;/font&gt;&lt;/div&gt;&lt;div&gt;&lt;font color=&quot;#ffff66&quot;&gt;&lt;span style=&quot;font-weight: 400;&quot;&gt;&amp;nbsp; &amp;nbsp; &amp;nbsp; &amp;nbsp; n = n / 10;&lt;/span&gt;&lt;/font&gt;&lt;/div&gt;&lt;div&gt;&lt;font color=&quot;#ffff66&quot;&gt;&lt;span style=&quot;font-weight: 400;&quot;&gt;&amp;nbsp; &amp;nbsp; }&lt;/span&gt;&lt;/font&gt;&lt;/div&gt;&lt;div&gt;&lt;font color=&quot;#ffff66&quot;&gt;&lt;span style=&quot;font-weight: 400;&quot;&gt;&amp;nbsp; &amp;nbsp; return k;&lt;/span&gt;&lt;/font&gt;&lt;/div&gt;&lt;div&gt;&lt;font color=&quot;#ffff66&quot;&gt;&lt;span style=&quot;font-weight: 400;&quot;&gt;}&lt;/span&gt;&lt;/font&gt;&lt;/div&gt;&lt;div&gt;&lt;font color=&quot;#ffff66&quot;&gt;&lt;span style=&quot;font-weight: 400;&quot;&gt;&lt;br&gt;&lt;/span&gt;&lt;/font&gt;&lt;/div&gt;&lt;div&gt;&lt;font color=&quot;#ffff66&quot;&gt;&lt;span style=&quot;font-weight: 400;&quot;&gt;&lt;br&gt;&lt;/span&gt;&lt;/font&gt;&lt;/div&gt;&lt;div&gt;&lt;font color=&quot;#ffff66&quot;&gt;&lt;span style=&quot;font-weight: 400;&quot;&gt;bool isHappy (int n) {&lt;/span&gt;&lt;/font&gt;&lt;/div&gt;&lt;div&gt;&lt;font color=&quot;#ffff66&quot;&gt;&lt;span style=&quot;font-weight: 400;&quot;&gt;&amp;nbsp; &amp;nbsp; int p = n, q = n;&lt;/span&gt;&lt;/font&gt;&lt;/div&gt;&lt;div&gt;&lt;font color=&quot;#ffff66&quot;&gt;&lt;span style=&quot;font-weight: 400;&quot;&gt;&amp;nbsp; &amp;nbsp; while (q != 1) {&lt;/span&gt;&lt;/font&gt;&lt;/div&gt;&lt;div&gt;&lt;font color=&quot;#ffff66&quot;&gt;&lt;span style=&quot;font-weight: 400;&quot;&gt;&amp;nbsp; &amp;nbsp; &amp;nbsp; &amp;nbsp; p = getNext(p);&lt;/span&gt;&lt;/font&gt;&lt;/div&gt;&lt;div&gt;&lt;font color=&quot;#ffff66&quot;&gt;&lt;span style=&quot;font-weight: 400;&quot;&gt;&amp;nbsp; &amp;nbsp; &amp;nbsp; &amp;nbsp; q = getNext(getNext(q));&lt;/span&gt;&lt;/font&gt;&lt;/div&gt;&lt;div&gt;&lt;font color=&quot;#ffff66&quot;&gt;&lt;span style=&quot;font-weight: 400;&quot;&gt;&amp;nbsp; &amp;nbsp; &amp;nbsp; &amp;nbsp; if (p == q &amp;amp;&amp;amp; p != 1) return false;&lt;/span&gt;&lt;/font&gt;&lt;/div&gt;&lt;div&gt;&lt;font color=&quot;#ffff66&quot;&gt;&lt;span style=&quot;font-weight: 400;&quot;&gt;&amp;nbsp; &amp;nbsp; }&lt;/span&gt;&lt;/font&gt;&lt;/div&gt;&lt;div&gt;&lt;font color=&quot;#ffff66&quot;&gt;&lt;span style=&quot;font-weight: 400;&quot;&gt;&amp;nbsp; &amp;nbsp; return true;&lt;/span&gt;&lt;/font&gt;&lt;/div&gt;&lt;div&gt;&lt;font color=&quot;#ffff66&quot;&gt;&lt;span style=&quot;font-weight: 400;&quot;&gt;}&lt;/span&gt;&lt;/font&gt;&lt;/div&gt;&lt;div&gt;&lt;br&gt;&lt;/div&gt;" style="rounded=1;whiteSpace=wrap;html=1;align=left;fillColor=#e51400;strokeColor=#B20000;spacingLeft=16;spacingBottom=-65;container=0;fontStyle=1;fontColor=#ffffff;" vertex="1" parent="1">
          <mxGeometry x="463" y="1750" width="321" height="400" as="geometry" />
        </mxCell>
        <mxCell id="JiQiLtjtx4iJ_nlNVHGM-60" value="逻辑结构层面对快乐数的判断&lt;div&gt;（本质和通过快慢指针判断循环链表是一样的）&lt;/div&gt;" style="text;html=1;align=center;verticalAlign=middle;whiteSpace=wrap;rounded=0;fontColor=#FFFFFF;fontStyle=1;fontSize=15;container=0;" vertex="1" parent="1">
          <mxGeometry x="455.25" y="1775" width="336.5" height="30" as="geometry" />
        </mxCell>
        <mxCell id="JiQiLtjtx4iJ_nlNVHGM-98" value="关于循环链表和双向链表（比较简单，不详细叙述）&lt;div&gt;（循环链表重点：头指针指向最后的节点）&lt;/div&gt;&lt;div&gt;（双向链表：在结构定义中，添加指向前一个节点的prev指针）&lt;/div&gt;" style="text;html=1;align=center;verticalAlign=middle;whiteSpace=wrap;rounded=0;fontStyle=1;fontSize=22;fillColor=#a20025;fontColor=#ffffff;strokeColor=#6F0000;" vertex="1" parent="1">
          <mxGeometry x="90" y="2220" width="648" height="90" as="geometry" />
        </mxCell>
      </root>
    </mxGraphModel>
  </diagram>
</mxfile>
